<?xml version="1.0" encoding="UTF-8" standalone="no"?>
<!DOCTYPE svg PUBLIC "-//W3C//DTD SVG 1.1//EN" "http://www.w3.org/Graphics/SVG/1.1/DTD/svg11.dtd">
<svg width="100%" height="100%" viewBox="0 0 500 500" version="1.1" xmlns="http://www.w3.org/2000/svg" xmlns:xlink="http://www.w3.org/1999/xlink" xml:space="preserve" xmlns:serif="http://www.serif.com/" style="fill-rule:evenodd;clip-rule:evenodd;stroke-linejoin:round;stroke-miterlimit:2;">
    <g transform="matrix(1,0,0,1,23.567636,182.329567)">
        <g transform="matrix(1,0,0,2.36977,-23.567636,-533.07703)">
            <rect x="0" y="148" width="500" height="211" style="fill:white;"/>
        </g>
        <g transform="matrix(1,0,0,1,-23.567636,-182.329567)">
            <rect x="191.9" y="0" width="114.1" height="519" style="fill:rgb(235,170,18);"/>
        </g>
        <g transform="matrix(1,0,0,1,100.079667,-183.817968)">
            <rect x="191.9" y="0" width="114.1" height="519" style="fill:rgb(192,41,54);"/>
        </g>
        <g transform="matrix(1,0,0,1,-148.460666,-191.800328)">
            <rect x="191.9" y="0" width="114.1" height="519" style="fill:rgb(39,82,162);"/>
        </g>
        <g transform="matrix(1,0,0,0.819905,-23.567636,-138.675539)">
            <rect x="0" y="148" width="500" height="211" style="fill:white;"/>
        </g>
        <path d="M189.132,141.67L130.332,-6.33L100.532,-6.33L41.132,141.67L81.732,141.67L89.532,120.27L140.932,120.27L148.132,141.67L189.132,141.67ZM130.932,90.27L99.932,90.27L115.132,39.67L115.732,39.67L130.932,90.27Z" style="fill:rgb(39,82,162);fill-rule:nonzero;"/>
        <path d="M296.332,141.67L250.132,91.27C273.532,87.47 286.932,67.47 286.932,44.67C286.932,29.27 280.932,14.07 268.732,4.27C255.932,-5.93 238.732,-6.33 223.132,-6.33L168.332,-6.33L168.332,141.67L204.532,141.67L204.532,93.87L204.932,93.87L247.132,141.67L296.332,141.67ZM250.732,46.87C250.732,62.07 240.132,68.07 225.932,68.07L204.532,68.07L204.532,26.87L226.332,26.87C239.332,26.87 250.732,32.27 250.732,46.87Z" style="fill:rgb(227,159,0);fill-rule:nonzero;"/>
        <path d="M417.732,86.27L378.132,86.27C371.532,100.87 359.132,111.27 342.532,111.27C318.332,111.27 302.732,90.07 302.732,67.27C302.732,44.47 318.332,24.07 342.332,24.07C358.932,24.07 372.332,34.67 378.132,49.87L417.732,49.87C416.332,41.27 412.532,32.87 407.732,25.67C392.932,3.27 369.332,-9.13 342.532,-9.13C299.532,-9.13 264.932,24.07 264.932,67.47C264.932,110.87 299.932,144.47 342.932,144.47C378.732,144.47 409.132,121.27 417.732,86.27Z" style="fill:rgb(192,42,55);fill-rule:nonzero;"/>
    </g>
</svg>
