<svg xmlns="http://www.w3.org/2000/svg" xml:space="preserve" fill-rule="evenodd" stroke-linejoin="round" stroke-miterlimit="2" clip-rule="evenodd" viewBox="0 0 152 197"><path fill="#C8202F" fill-rule="nonzero" d="M146 102c-9-19 14-41-17-56 7 19-5 29-13 29-5 0-15-6-8-22 8-22-5-39-23-41 6 7 6 24-8 26-15 3-22-16-5-38 0 0-32-4-41 29-8 26 22 44 5 56-13 9-24-7-16-21C2 72-4 93 2 113c5 18 0 27 4 39l5 11q5 4 7-3c-7-30 10-63 44-70 43-8 75 21 67 57-8 35-57 38-73 19-17-19-7-46 15-48s31 16 24 28c-5 10-18 4-13-7 3-7-3-11-9-11-10 0-22 11-13 28 9 16 31 15 43 8 14-8 21-30 5-49-17-22-51-17-66-2a49 49 0 0 0 26 82q40 6 61-13c28-21 26-61 17-80"/></svg>