<?xml version="1.0" encoding="UTF-8" standalone="no"?><!DOCTYPE svg PUBLIC "-//W3C//DTD SVG 1.1//EN" "http://www.w3.org/Graphics/SVG/1.1/DTD/svg11.dtd"><svg width="100%" height="100%" viewBox="0 0 158 150" version="1.1" xmlns="http://www.w3.org/2000/svg" xmlns:xlink="http://www.w3.org/1999/xlink" xml:space="preserve" xmlns:serif="http://www.serif.com/" style="fill-rule:evenodd;clip-rule:evenodd;stroke-linejoin:round;stroke-miterlimit:2;"><path d="M133.327,21.036c-7.843,-7.68 -18.48,-13.13 -18.48,-13.13c-40.021,-19.259 -87.933,-2.124 -107.015,38.272c-17.404,36.847 -4.807,80.323 27.914,102.293c5.543,3.762 9.332,-1.42 5.295,-5.86c-23.044,-22.882 -33.909,-58.016 -16.676,-88.665c19.898,-34.946 72.443,-45.623 99.75,-13.641c13.291,14.957 17.098,35.623 10.577,53.036c-5.867,16.011 -18.649,28.693 -35.703,32.478c-23.897,3.909 -48.909,-14.975 -47.316,-39.898c0.993,-20.068 21.524,-34.776 39.25,-25.634c15.93,8.216 13.415,24.283 5.916,23.399c-5.364,-0.632 -4.594,-9.556 -12.668,-12.467c-6.277,-2.263 -14.974,0.142 -19.218,8.31c-4.326,8.325 -2.015,20.141 6.998,26.198c7.639,5.387 15.853,7.861 25.402,5.601c15.669,-4.445 25.681,-18.46 25.364,-35.742c-1.238,-29.701 -32.373,-46.396 -58.912,-36.909c-14.948,6.509 -26.343,19.86 -30.826,36.536c-7.654,30.567 14.128,59.882 42.37,68.336c40.616,10.985 79.736,-21.56 81.732,-61.698c0.932,-23.521 -8.159,-45.541 -23.754,-60.815Z" style="fill:#094e9f;fill-rule:nonzero;"/></svg>