<?xml version="1.0" encoding="UTF-8" standalone="no"?>
<!DOCTYPE svg PUBLIC "-//W3C//DTD SVG 1.1//EN" "http://www.w3.org/Graphics/SVG/1.1/DTD/svg11.dtd">
<svg width="100%" height="100%" viewBox="0 0 1101 1467" version="1.1" xmlns="http://www.w3.org/2000/svg" xmlns:xlink="http://www.w3.org/1999/xlink" xml:space="preserve" xmlns:serif="http://www.serif.com/" style="fill-rule:evenodd;clip-rule:evenodd;stroke-linejoin:round;stroke-miterlimit:2;">
    <g transform="matrix(7.6902,0,0,7.6902,-1.13687e-13,0)">
        <path d="M71.538,0C111.042,0 143.069,31.477 143.069,70.308C143.069,96.846 128.11,119.945 106.028,131.913L121.46,180.321L100.538,173.105L87.545,190.759L71.562,140.61L71.513,140.61L55.53,190.759L42.538,173.105L21.615,180.321L37.047,131.913C14.96,119.945 0,96.846 0,70.308C0,31.477 32.034,0 71.538,0ZM117.091,97.352L121.883,95.539L121.901,95.539C123.047,95.106 123.642,93.859 123.249,92.714L121.613,87.926C121.294,86.986 121.638,85.95 122.459,85.372L126.645,82.444C127.644,81.74 127.907,80.391 127.239,79.379L124.445,75.145C123.893,74.313 123.967,73.223 124.616,72.464L127.926,68.604C128.716,67.682 128.624,66.309 127.724,65.49L123.948,62.068C123.201,61.394 122.992,60.322 123.433,59.43L125.664,54.883C126.198,53.793 125.768,52.486 124.684,51.913L120.161,49.522C119.272,49.046 118.8,48.065 118.996,47.089L120.008,42.138C120.253,40.957 119.505,39.795 118.31,39.506L113.321,38.295C112.341,38.054 111.636,37.217 111.581,36.223L111.306,31.182C111.238,29.977 110.214,29.038 108.989,29.05L103.853,29.098C102.842,29.11 101.941,28.465 101.641,27.52L100.103,22.701C99.735,21.551 98.509,20.888 97.32,21.201L92.356,22.502C91.376,22.761 90.346,22.358 89.812,21.515L87.104,17.226C86.454,16.202 85.1,15.859 84.028,16.449L79.547,18.925C78.671,19.413 77.568,19.274 76.838,18.587L73.131,15.094C72.242,14.257 70.845,14.257 69.956,15.094L66.249,18.587C65.52,19.274 64.422,19.413 63.54,18.925L59.06,16.449C57.988,15.859 56.633,16.202 55.984,17.226L53.275,21.515C52.742,22.358 51.706,22.761 50.731,22.502L45.767,21.201C44.578,20.888 43.353,21.551 42.985,22.701L41.447,27.52C41.14,28.465 40.246,29.11 39.234,29.098L34.099,29.05C32.873,29.038 31.856,29.977 31.788,31.182L31.513,36.223C31.464,37.217 30.753,38.06 29.772,38.295L24.784,39.506C23.595,39.795 22.847,40.951 23.086,42.138L24.097,47.089C24.293,48.065 23.821,49.052 22.933,49.522L18.41,51.913C17.325,52.486 16.896,53.793 17.429,54.883L19.66,59.43C20.095,60.322 19.887,61.394 19.145,62.068L15.37,65.49C14.463,66.309 14.377,67.682 15.168,68.604L18.477,72.464C19.127,73.223 19.2,74.313 18.649,75.145L15.854,79.379C15.186,80.396 15.45,81.746 16.449,82.444L20.635,85.372C21.456,85.945 21.799,86.986 21.48,87.926L19.844,92.714C19.452,93.859 20.046,95.106 21.192,95.539L25.985,97.352C26.929,97.714 27.523,98.635 27.449,99.623L27.076,104.658C26.984,105.863 27.878,106.923 29.098,107.062L34.203,107.645C35.208,107.76 36.017,108.507 36.195,109.483L37.108,114.452C37.329,115.638 38.456,116.445 39.676,116.283L44.768,115.602C45.774,115.469 46.742,115.994 47.165,116.897L49.31,121.487C49.818,122.589 51.118,123.095 52.257,122.637L57.013,120.734C57.951,120.36 59.023,120.631 59.661,121.402L62.896,125.323C63.675,126.263 65.06,126.432 66.047,125.715L70.171,122.709C70.98,122.119 72.095,122.119 72.904,122.709L77.028,125.715C78.015,126.432 79.407,126.263 80.179,125.323L83.414,121.402C84.052,120.631 85.124,120.36 86.062,120.734L90.818,122.637C91.952,123.089 93.251,122.583 93.766,121.487L95.911,116.897C96.333,115.994 97.308,115.469 98.306,115.602L103.4,116.283C104.619,116.445 105.747,115.638 105.967,114.452L106.881,109.483C107.058,108.507 107.867,107.76 108.872,107.645L113.977,107.062C115.197,106.923 116.091,105.863 116,104.658L115.626,99.623C115.553,98.629 116.147,97.707 117.091,97.352ZM60.097,57.057L71.539,31.567L82.974,57.057L111.177,59.876L90.047,78.445L96.034,105.676L71.539,91.66L47.037,105.676L53.031,78.445L31.894,59.876L60.097,57.057Z" style="fill:rgb(46,26,71);"/>
    </g>
</svg>
