<?xml version="1.0" encoding="UTF-8" standalone="no"?>
<!DOCTYPE svg PUBLIC "-//W3C//DTD SVG 1.1//EN" "http://www.w3.org/Graphics/SVG/1.1/DTD/svg11.dtd">
<svg width="100%" height="100%" viewBox="0 0 500 500" version="1.1" xmlns="http://www.w3.org/2000/svg" xmlns:xlink="http://www.w3.org/1999/xlink" xml:space="preserve" xmlns:serif="http://www.serif.com/" style="fill-rule:evenodd;clip-rule:evenodd;stroke-linejoin:round;stroke-miterlimit:2;">
    <rect x="0" y="0" width="500" height="500" style="fill:rgb(235,170,18);"/>
    <g transform="matrix(0.78311,0,0,0.78311,14.156603,114.488296)">
        <path d="M112.475,119.463C68.526,86.494 72.587,14.844 117.293,-12.731C151.996,-34.136 198.457,-19.61 217.657,14.782C235.92,47.495 227.479,95.901 196.016,119.492C292.067,144.572 320.406,253.869 248.484,253.869L59.906,253.869C-11.9,253.869 16.041,144.597 112.475,119.463Z" style="fill-rule:nonzero;"/>
        <path d="M69.995,108.674C43.579,61.043 56.669,-5.344 103.886,-34.468C150.892,-63.461 213.95,-44.252 239.956,2.332C257.456,33.679 256.209,75.969 238.225,108.6C286.217,133.889 312.4,178.476 314.249,212.401C315.275,231.203 309.682,247.621 298.656,259.599C287.974,271.204 271.683,279.408 248.484,279.408L59.906,279.408C36.746,279.408 20.458,271.215 9.763,259.613C-1.269,247.644 -6.881,231.236 -5.886,212.446C-4.092,178.557 21.97,134.008 69.995,108.674ZM112.475,119.463C16.041,144.597 -11.9,253.869 59.906,253.869L248.484,253.869C320.406,253.869 292.067,144.572 196.016,119.492C227.479,95.901 235.92,47.495 217.657,14.782C198.457,-19.61 151.996,-34.136 117.293,-12.731C72.587,14.844 68.526,86.494 112.475,119.463Z" style="fill:rgb(235,170,18);"/>
    </g>
    <g transform="matrix(0.78311,0,0,0.78311,234.697734,114.488296)">
        <path d="M112.475,119.463C68.526,86.494 72.587,14.844 117.293,-12.731C151.996,-34.136 198.457,-19.61 217.657,14.782C235.92,47.495 227.479,95.901 196.016,119.492C292.067,144.572 320.406,253.869 248.484,253.869L59.906,253.869C-11.9,253.869 16.041,144.597 112.475,119.463Z" style="fill-rule:nonzero;"/>
        <path d="M69.995,108.674C43.579,61.043 56.669,-5.344 103.886,-34.468C150.892,-63.461 213.95,-44.252 239.956,2.332C257.456,33.679 256.209,75.969 238.225,108.6C286.217,133.889 312.4,178.476 314.249,212.401C315.275,231.203 309.682,247.621 298.656,259.599C287.974,271.204 271.683,279.408 248.484,279.408L59.906,279.408C36.746,279.408 20.458,271.215 9.763,259.613C-1.269,247.644 -6.881,231.236 -5.886,212.446C-4.092,178.557 21.97,134.008 69.995,108.674ZM112.475,119.463C16.041,144.597 -11.9,253.869 59.906,253.869L248.484,253.869C320.406,253.869 292.067,144.572 196.016,119.492C227.479,95.901 235.92,47.495 217.657,14.782C198.457,-19.61 151.996,-34.136 117.293,-12.731C72.587,14.844 68.526,86.494 112.475,119.463Z" style="fill:rgb(235,170,18);"/>
    </g>
    <g transform="matrix(0.78311,0,0,0.78311,129.256307,228.811815)">
        <path d="M112.475,119.463C68.526,86.494 72.587,14.844 117.293,-12.731C151.996,-34.136 198.457,-19.61 217.657,14.782C235.92,47.495 227.479,95.901 196.016,119.492C292.067,144.572 320.406,253.869 248.484,253.869L59.906,253.869C-11.9,253.869 16.041,144.597 112.475,119.463Z" style="fill-rule:nonzero;"/>
        <path d="M69.995,108.674C43.579,61.043 56.669,-5.344 103.886,-34.468C150.892,-63.461 213.95,-44.252 239.956,2.332C257.456,33.679 256.209,75.969 238.225,108.6C286.217,133.889 312.4,178.476 314.249,212.401C315.275,231.203 309.682,247.621 298.656,259.599C287.974,271.204 271.683,279.408 248.484,279.408L59.906,279.408C36.746,279.408 20.458,271.215 9.763,259.613C-1.269,247.644 -6.881,231.236 -5.886,212.446C-4.092,178.557 21.97,134.008 69.995,108.674ZM112.475,119.463C16.041,144.597 -11.9,253.869 59.906,253.869L248.484,253.869C320.406,253.869 292.067,144.572 196.016,119.492C227.479,95.901 235.92,47.495 217.657,14.782C198.457,-19.61 151.996,-34.136 117.293,-12.731C72.587,14.844 68.526,86.494 112.475,119.463Z" style="fill:rgb(235,170,18);"/>
    </g>
</svg>
