<?xml version="1.0" encoding="UTF-8" standalone="no"?><!DOCTYPE svg PUBLIC "-//W3C//DTD SVG 1.1//EN" "http://www.w3.org/Graphics/SVG/1.1/DTD/svg11.dtd"><svg width="100%" height="100%" viewBox="0 0 243 174" version="1.1" xmlns="http://www.w3.org/2000/svg" xmlns:xlink="http://www.w3.org/1999/xlink" xml:space="preserve" xmlns:serif="http://www.serif.com/" style="fill-rule:evenodd;clip-rule:evenodd;stroke-linejoin:round;stroke-miterlimit:2;"><rect id="DemeritIcon.svg" x="-0" y="0" width="242.06" height="173.981" style="fill:none;"/><clipPath id="_clip1"><rect x="-0" y="0" width="242.06" height="173.981"/></clipPath><g clip-path="url(#_clip1)"><clipPath id="_clip2"><rect id="DemeritIcon.svg1" serif:id="DemeritIcon.svg" x="0" y="0" width="242.06" height="173.981"/></clipPath><g clip-path="url(#_clip2)"><path d="M163.019,15.46l-67.331,13.863c-4.222,0.87 -8.355,-1.851 -9.225,-6.073c-0.869,-4.222 1.851,-8.355 6.073,-9.225l67.332,-13.863c4.221,-0.87 8.355,1.851 9.224,6.073c0.87,4.222 -1.851,8.355 -6.073,9.225Zm-74.352,122.181l4.779,0c0,-5.418 4.393,-9.819 9.82,-9.819l87.698,0c5.419,0 9.819,4.393 9.819,9.819l4.78,0c7.018,0 12.704,5.687 12.704,12.704l-0,23.133l-142.304,-0l-0,-23.133c-0,-7.017 5.687,-12.704 12.704,-12.704Zm25.489,-18.635l67.331,-13.863c4.222,-0.87 6.943,-5.003 6.073,-9.224c-0.87,-4.223 -5.002,-6.943 -9.225,-6.074l-67.331,13.863c-4.222,0.87 -6.942,5.003 -6.073,9.225c0.87,4.222 5.003,6.943 9.225,6.073Zm-107.022,-52.494l53.067,-10.927c3.531,-0.728 6.987,0.743 8.987,3.471l31.287,-6.444l-3.948,-19.163l67.332,-13.864l13.618,66.134l-67.331,13.864l-4.832,-23.46l-31.287,6.445c-0.758,3.293 -3.36,6.014 -6.891,6.742l-53.066,10.927c-4.825,0.996 -9.545,-2.111 -10.541,-6.935l-3.345,-16.25c-0.996,-4.824 2.111,-9.544 6.936,-10.54l0.014,0Zm209.511,51.803l-13.03,1.368l31.361,8.139l-14.362,-15l14.362,-10.972l-16.911,-6.407l5.552,-22.865l-25.303,18.754l13.864,-0.914l-8.563,12.346l13.03,2.743l-13.03,5.947l13.03,6.861Z" style="fill:#c8102e;"/></g></g></svg>