<?xml version="1.0" encoding="UTF-8" standalone="no"?>
<!DOCTYPE svg PUBLIC "-//W3C//DTD SVG 1.1//EN" "http://www.w3.org/Graphics/SVG/1.1/DTD/svg11.dtd">
<svg width="100%" height="100%" viewBox="0 0 500 500" version="1.1" xmlns="http://www.w3.org/2000/svg" xmlns:xlink="http://www.w3.org/1999/xlink" xml:space="preserve" xmlns:serif="http://www.serif.com/" style="fill-rule:evenodd;clip-rule:evenodd;stroke-linejoin:round;stroke-miterlimit:2;">
    <g id="PlaywallPage.svg" transform="matrix(1,0,0,1,82,51)">
        <rect x="0" y="0" width="335.121" height="397.181" style="fill:none;"/>
    </g>
    <rect x="171" y="176" width="174" height="178" style="fill:white;"/>
    <g transform="matrix(0.869077,0,0,0.869077,103.937469,77)">
        <g>
            <clipPath id="_clip1">
                <rect x="0" y="0" width="335.121" height="397.181"/>
            </clipPath>
            <g clip-path="url(#_clip1)">
                <path d="M224.003,84.127L224.003,0L24.54,0C10.971,0 -0,11.049 -0,24.715L-0,372.466C-0,386.1 10.971,397.181 24.54,397.181L310.55,397.181C324.087,397.181 335.089,386.132 335.089,372.466L335.089,111.879L251.558,111.879C236.352,111.879 224.003,99.44 224.003,84.127ZM240.651,287.144C240.651,292.055 236.706,296.028 231.83,296.028L103.26,296.028C98.384,296.028 94.438,292.055 94.438,287.144L94.438,205.181C94.438,200.27 98.384,196.297 103.26,196.297L115.642,196.297L115.642,169.223C115.642,140.406 138.931,116.951 167.545,116.951C196.158,116.951 219.447,140.406 219.447,169.223L219.447,196.297L231.83,196.297C236.706,196.297 240.651,200.27 240.651,205.181L240.651,287.144ZM167.545,144.412C153.944,144.412 142.909,155.558 142.909,169.223L142.909,196.297L192.181,196.297L192.181,169.223C192.181,155.526 181.114,144.412 167.545,144.412ZM246.425,0L246.329,0L246.329,82.641C246.329,86.356 249.344,89.393 253.033,89.393L335.121,89.393L335.121,89.296L246.425,0Z" style="fill:rgb(46,25,71);fill-rule:nonzero;"/>
            </g>
        </g>
    </g>
</svg>
