<?xml version="1.0" encoding="UTF-8" standalone="no"?>
<!DOCTYPE svg PUBLIC "-//W3C//DTD SVG 1.1//EN" "http://www.w3.org/Graphics/SVG/1.1/DTD/svg11.dtd">
<svg width="100%" height="100%" viewBox="0 0 500 500" version="1.1" xmlns="http://www.w3.org/2000/svg" xmlns:xlink="http://www.w3.org/1999/xlink" xml:space="preserve" xmlns:serif="http://www.serif.com/" style="fill-rule:evenodd;clip-rule:evenodd;stroke-linejoin:round;stroke-miterlimit:2;">
    <rect x="207" y="167" width="207" height="216" style="fill:white;"/>
    <g transform="matrix(0.869077,0,0,0.869077,103.937469,77)">
        <g transform="matrix(1.150646,0,0,1.150646,-119.595236,-88.599744)">
            <path d="M422.151,150.995L76.97,150.995L76.97,123.992C76.97,118.689 79.077,113.602 82.827,109.852C86.577,106.102 91.664,103.995 96.967,103.995L402.151,103.995C407.455,103.995 412.542,106.102 416.293,109.853C420.044,113.604 422.151,118.691 422.151,123.995L422.151,150.995Z" style="fill:rgb(46,25,71);"/>
        </g>
        <g transform="matrix(1.150646,0,0,1.150646,-119.595236,-88.599744)">
            <path d="M76.97,160.995L192,160.995L192,395.213L96.97,395.213C91.666,395.213 86.579,393.106 82.828,389.356C79.077,385.605 76.97,380.518 76.97,375.213L76.97,160.995Z" style="fill:rgb(46,25,71);"/>
        </g>
        <g transform="matrix(1.150646,0,0,1.150646,-119.595236,-88.599744)">
            <path d="M202,395.213L202,160.995L422.151,160.995L422.151,375.213C422.151,380.518 420.044,385.605 416.293,389.356C412.542,393.106 407.455,395.213 402.151,395.213L202,395.213ZM361.544,329.09L361.544,272.599C361.544,269.214 358.825,266.476 355.465,266.476L346.93,266.476L346.93,247.816C346.93,227.954 330.879,211.788 311.158,211.788C291.436,211.788 275.385,227.954 275.385,247.816L275.385,266.476L266.851,266.476C263.49,266.476 260.77,269.214 260.77,272.599L260.77,329.09C260.77,332.475 263.49,335.213 266.851,335.213L355.465,335.213C358.825,335.213 361.544,332.475 361.544,329.09Z" style="fill:rgb(46,25,71);"/>
        </g>
        <g transform="matrix(1.150646,0,0,1.150646,-119.595236,-88.599744)">
            <path d="M311.158,230.715C320.51,230.715 328.138,238.375 328.138,247.816L328.138,266.476L294.178,266.476L294.178,247.816C294.178,238.398 301.784,230.715 311.158,230.715Z" style="fill:rgb(46,25,71);"/>
        </g>
    </g>
</svg>
